<mxfile host="app.diagrams.net" modified="2022-02-22T09:59:54.993Z" agent="5.0 (Macintosh; Intel Mac OS X 10_15_7) AppleWebKit/537.36 (KHTML, like Gecko) Chrome/98.0.4758.80 Safari/537.36" etag="kZQ6dalHRMDhXlWpCCe4" version="16.6.1" type="github" pages="2">
  <diagram id="HClGZ7QLz-IOR6l6fCfy" name="Gigya-ASIS">
    <mxGraphModel dx="1666" dy="769" grid="1" gridSize="10" guides="1" tooltips="1" connect="1" arrows="1" fold="1" page="1" pageScale="1" pageWidth="850" pageHeight="1100" math="0" shadow="0">
      <root>
        <mxCell id="0" />
        <mxCell id="1" parent="0" />
        <mxCell id="_8wzOPU7wJIFaHoj3cJt-1" value="&lt;font style=&quot;font-size: 18px&quot;&gt;&lt;b&gt;SAP Corp Network&lt;/b&gt;&lt;/font&gt;" style="ellipse;shape=cloud;whiteSpace=wrap;html=1;" parent="1" vertex="1">
          <mxGeometry x="210" y="540" width="443" height="250" as="geometry" />
        </mxCell>
        <mxCell id="OR4rUvQ48BQsvwXKL2iI-1" style="edgeStyle=orthogonalEdgeStyle;rounded=0;orthogonalLoop=1;jettySize=auto;html=1;exitX=0.55;exitY=0.95;exitDx=0;exitDy=0;exitPerimeter=0;entryX=0;entryY=0.5;entryDx=0;entryDy=0;curved=1;" parent="1" source="_8wzOPU7wJIFaHoj3cJt-3" target="_8wzOPU7wJIFaHoj3cJt-7" edge="1">
          <mxGeometry relative="1" as="geometry" />
        </mxCell>
        <mxCell id="_8wzOPU7wJIFaHoj3cJt-3" value="&lt;font style=&quot;font-size: 18px&quot;&gt;&lt;b&gt;Gigya network&lt;/b&gt;&lt;/font&gt;" style="ellipse;shape=cloud;whiteSpace=wrap;html=1;" parent="1" vertex="1">
          <mxGeometry x="10" y="70" width="443" height="250" as="geometry" />
        </mxCell>
        <mxCell id="OR4rUvQ48BQsvwXKL2iI-2" style="edgeStyle=orthogonalEdgeStyle;rounded=0;orthogonalLoop=1;jettySize=auto;html=1;curved=1;" parent="1" source="_8wzOPU7wJIFaHoj3cJt-4" target="_8wzOPU7wJIFaHoj3cJt-7" edge="1">
          <mxGeometry relative="1" as="geometry" />
        </mxCell>
        <mxCell id="OR4rUvQ48BQsvwXKL2iI-3" style="edgeStyle=orthogonalEdgeStyle;rounded=0;orthogonalLoop=1;jettySize=auto;html=1;exitX=0.25;exitY=0;exitDx=0;exitDy=0;curved=1;" parent="1" source="_8wzOPU7wJIFaHoj3cJt-4" target="_8wzOPU7wJIFaHoj3cJt-5" edge="1">
          <mxGeometry relative="1" as="geometry" />
        </mxCell>
        <mxCell id="_8wzOPU7wJIFaHoj3cJt-4" value="Home" style="shape=image;verticalLabelPosition=bottom;verticalAlign=top;imageAspect=0;aspect=fixed;image=data:image/svg+xml,PHN2ZyB4bWxucz0iaHR0cDovL3d3dy53My5vcmcvMjAwMC9zdmciIHZlcnNpb249IjEiIHZpZXdCb3g9IjAgMCA0OCA0OCIgZW5hYmxlLWJhY2tncm91bmQ9Im5ldyAwIDAgNDggNDgiPiYjeGE7ICAgIDxwb2x5Z29uIGZpbGw9IiNFOEVBRjYiIHBvaW50cz0iNDIsMzkgNiwzOSA2LDIzIDI0LDYgNDIsMjMiLz4mI3hhOyAgICA8ZyBmaWxsPSIjQzVDQUU5Ij4mI3hhOyAgICAgICAgPHBvbHlnb24gcG9pbnRzPSIzOSwyMSAzNCwxNiAzNCw5IDM5LDkiLz4mI3hhOyAgICAgICAgPHJlY3QgeD0iNiIgeT0iMzkiIHdpZHRoPSIzNiIgaGVpZ2h0PSI1Ii8+JiN4YTsgICAgPC9nPiYjeGE7ICAgIDxwb2x5Z29uIGZpbGw9IiNCNzFDMUMiIHBvaW50cz0iMjQsNC4zIDQsMjIuOSA2LDI1LjEgMjQsOC40IDQyLDI1LjEgNDQsMjIuOSIvPiYjeGE7ICAgIDxyZWN0IHg9IjE4IiB5PSIyOCIgZmlsbD0iI0Q4NDMxNSIgd2lkdGg9IjEyIiBoZWlnaHQ9IjE2Ii8+JiN4YTsgICAgPHJlY3QgeD0iMjEiIHk9IjE3IiBmaWxsPSIjMDE1NzlCIiB3aWR0aD0iNiIgaGVpZ2h0PSI2Ii8+JiN4YTsgICAgPHBhdGggZmlsbD0iI0ZGOEE2NSIgZD0iTTI3LjUsMzUuNWMtMC4zLDAtMC41LDAuMi0wLjUsMC41djJjMCwwLjMsMC4yLDAuNSwwLjUsMC41UzI4LDM4LjMsMjgsMzh2LTJDMjgsMzUuNywyNy44LDM1LjUsMjcuNSwzNS41eiIvPiYjeGE7PC9zdmc+;labelBackgroundColor=#ffffff;" parent="1" vertex="1">
          <mxGeometry x="380" y="330" width="64" height="64" as="geometry" />
        </mxCell>
        <mxCell id="OR4rUvQ48BQsvwXKL2iI-4" style="edgeStyle=orthogonalEdgeStyle;rounded=0;orthogonalLoop=1;jettySize=auto;html=1;exitX=1;exitY=0.5;exitDx=0;exitDy=0;entryX=0;entryY=0.5;entryDx=0;entryDy=0;entryPerimeter=0;curved=1;" parent="1" source="_8wzOPU7wJIFaHoj3cJt-5" target="_8wzOPU7wJIFaHoj3cJt-11" edge="1">
          <mxGeometry relative="1" as="geometry">
            <mxPoint x="760" y="240" as="targetPoint" />
          </mxGeometry>
        </mxCell>
        <mxCell id="_8wzOPU7wJIFaHoj3cJt-5" value="Fortigate VPN&#xa;" style="shape=image;verticalLabelPosition=bottom;verticalAlign=top;imageAspect=0;aspect=fixed;image=data:image/svg+xml,PHN2ZyB4bWxucz0iaHR0cDovL3d3dy53My5vcmcvMjAwMC9zdmciIHZlcnNpb249IjEiIHZpZXdCb3g9IjAgMCA0OCA0OCIgZW5hYmxlLWJhY2tncm91bmQ9Im5ldyAwIDAgNDggNDgiPiYjeGE7ICAgIDxwYXRoIGZpbGw9IiM0MjQyNDIiIGQ9Ik0yNCw0Yy01LjUsMC0xMCw0LjUtMTAsMTB2NGg0di00YzAtMy4zLDIuNy02LDYtNnM2LDIuNyw2LDZ2NGg0di00QzM0LDguNSwyOS41LDQsMjQsNHoiLz4mI3hhOyAgICA8cGF0aCBmaWxsPSIjRkI4QzAwIiBkPSJNMzYsNDRIMTJjLTIuMiwwLTQtMS44LTQtNFYyMmMwLTIuMiwxLjgtNCw0LTRoMjRjMi4yLDAsNCwxLjgsNCw0djE4QzQwLDQyLjIsMzguMiw0NCwzNiw0NHoiLz4mI3hhOyAgICA8Y2lyY2xlIGZpbGw9IiNDNzZFMDAiIGN4PSIyNCIgY3k9IjMxIiByPSIzIi8+JiN4YTs8L3N2Zz4=;labelBackgroundColor=#ffffff;" parent="1" vertex="1">
          <mxGeometry x="388" y="212" width="48" height="48" as="geometry" />
        </mxCell>
        <mxCell id="_8wzOPU7wJIFaHoj3cJt-6" value="/dev/ops/monitoring/admin&#xa;" style="shape=image;verticalLabelPosition=bottom;verticalAlign=top;imageAspect=0;aspect=fixed;image=data:image/svg+xml,PHN2ZyB4bWxucz0iaHR0cDovL3d3dy53My5vcmcvMjAwMC9zdmciIHZlcnNpb249IjEiIHZpZXdCb3g9IjAgMCA0OCA0OCIgZW5hYmxlLWJhY2tncm91bmQ9Im5ldyAwIDAgNDggNDgiPiYjeGE7ICAgIDxwb2x5Z29uIGZpbGw9IiNGRjk4MDAiIHBvaW50cz0iMjQsMzcgMTksMzEgMTksMjUgMjksMjUgMjksMzEiLz4mI3hhOyAgICA8ZyBmaWxsPSIjRkZBNzI2Ij4mI3hhOyAgICAgICAgPGNpcmNsZSBjeD0iMzMiIGN5PSIxOSIgcj0iMiIvPiYjeGE7ICAgICAgICA8Y2lyY2xlIGN4PSIxNSIgY3k9IjE5IiByPSIyIi8+JiN4YTsgICAgPC9nPiYjeGE7ICAgIDxwYXRoIGZpbGw9IiNGRkI3NEQiIGQ9Ik0zMywxM2MwLTcuNi0xOC01LTE4LDBjMCwxLjEsMCw1LjksMCw3YzAsNSw0LDksOSw5czktNCw5LTlDMzMsMTguOSwzMywxNC4xLDMzLDEzeiIvPiYjeGE7ICAgIDxwYXRoIGZpbGw9IiM0MjQyNDIiIGQ9Ik0yNCw0Yy02LjEsMC0xMCw0LjktMTAsMTFjMCwwLjgsMCwyLjMsMCwyLjNsMiwxLjd2LTVsMTItNGw0LDR2NWwyLTEuN2MwLDAsMC0xLjUsMC0yLjNjMC00LTEtOC02LTlsLTEtMiBIMjR6Ii8+JiN4YTsgICAgPGcgZmlsbD0iIzc4NDcxOSI+JiN4YTsgICAgICAgIDxjaXJjbGUgY3g9IjI4IiBjeT0iMTkiIHI9IjEiLz4mI3hhOyAgICAgICAgPGNpcmNsZSBjeD0iMjAiIGN5PSIxOSIgcj0iMSIvPiYjeGE7ICAgIDwvZz4mI3hhOyAgICA8cG9seWdvbiBmaWxsPSIjZmZmIiBwb2ludHM9IjI0LDQzIDE5LDMxIDI0LDMyIDI5LDMxIi8+JiN4YTsgICAgPHBvbHlnb24gZmlsbD0iI0QzMkYyRiIgcG9pbnRzPSIyMywzNSAyMi4zLDM5LjUgMjQsNDMuNSAyNS43LDM5LjUgMjUsMzUgMjYsMzQgMjQsMzIgMjIsMzQiLz4mI3hhOyAgICA8cGF0aCBmaWxsPSIjNTQ2RTdBIiBkPSJNMjksMzFMMjksMzFsLTUsMTJsLTUtMTJjMCwwLTExLDItMTEsMTNoMzJDNDAsMzMsMjksMzEsMjksMzF6Ii8+JiN4YTs8L3N2Zz4=;labelBackgroundColor=#ffffff;" parent="1" vertex="1">
          <mxGeometry x="240" y="220" width="40" height="40" as="geometry" />
        </mxCell>
        <mxCell id="_8wzOPU7wJIFaHoj3cJt-7" value="SAP Big F5&#xa;VPN&#xa;" style="shape=image;verticalLabelPosition=bottom;verticalAlign=top;imageAspect=0;aspect=fixed;image=data:image/svg+xml,PHN2ZyB4bWxucz0iaHR0cDovL3d3dy53My5vcmcvMjAwMC9zdmciIHZlcnNpb249IjEiIHZpZXdCb3g9IjAgMCA0OCA0OCIgZW5hYmxlLWJhY2tncm91bmQ9Im5ldyAwIDAgNDggNDgiPiYjeGE7ICAgIDxwYXRoIGZpbGw9IiM0MjQyNDIiIGQ9Ik0yNCw0Yy01LjUsMC0xMCw0LjUtMTAsMTB2NGg0di00YzAtMy4zLDIuNy02LDYtNnM2LDIuNyw2LDZ2NGg0di00QzM0LDguNSwyOS41LDQsMjQsNHoiLz4mI3hhOyAgICA8cGF0aCBmaWxsPSIjRkI4QzAwIiBkPSJNMzYsNDRIMTJjLTIuMiwwLTQtMS44LTQtNFYyMmMwLTIuMiwxLjgtNCw0LTRoMjRjMi4yLDAsNCwxLjgsNCw0djE4QzQwLDQyLjIsMzguMiw0NCwzNiw0NHoiLz4mI3hhOyAgICA8Y2lyY2xlIGZpbGw9IiNDNzZFMDAiIGN4PSIyNCIgY3k9IjMxIiByPSIzIi8+JiN4YTs8L3N2Zz4=;labelBackgroundColor=#ffffff;" parent="1" vertex="1">
          <mxGeometry x="270" y="570" width="48" height="48" as="geometry" />
        </mxCell>
        <mxCell id="_8wzOPU7wJIFaHoj3cJt-8" value="&lt;b&gt;&lt;font style=&quot;font-size: 18px&quot;&gt;AWS&lt;/font&gt;&lt;/b&gt;" style="ellipse;shape=cloud;whiteSpace=wrap;html=1;" parent="1" vertex="1">
          <mxGeometry x="790" y="90" width="400" height="380" as="geometry" />
        </mxCell>
        <mxCell id="_8wzOPU7wJIFaHoj3cJt-10" value="" style="outlineConnect=0;dashed=0;verticalLabelPosition=bottom;verticalAlign=top;align=center;html=1;shape=mxgraph.aws3.db_on_instance;fillColor=#F58534;gradientColor=none;" parent="1" vertex="1">
          <mxGeometry x="960" y="180" width="60" height="64.5" as="geometry" />
        </mxCell>
        <mxCell id="_8wzOPU7wJIFaHoj3cJt-11" value="" style="outlineConnect=0;dashed=0;verticalLabelPosition=bottom;verticalAlign=top;align=center;html=1;shape=mxgraph.aws3.vpn_gateway;fillColor=#F58534;gradientColor=none;" parent="1" vertex="1">
          <mxGeometry x="800" y="244.5" width="30" height="40" as="geometry" />
        </mxCell>
        <mxCell id="_8wzOPU7wJIFaHoj3cJt-12" value="" style="shape=image;verticalLabelPosition=bottom;labelBackgroundColor=#ffffff;verticalAlign=top;aspect=fixed;imageAspect=0;image=data:image/svg+xml,PHN2ZyB4bWxuczpjYz0iaHR0cDovL2NyZWF0aXZlY29tbW9ucy5vcmcvbnMjIiB4bWxuczpkYz0iaHR0cDovL3B1cmwub3JnL2RjL2VsZW1lbnRzLzEuMS8iIHhtbG5zOmlua3NjYXBlPSJodHRwOi8vd3d3Lmlua3NjYXBlLm9yZy9uYW1lc3BhY2VzL2lua3NjYXBlIiB4bWxuczpyZGY9Imh0dHA6Ly93d3cudzMub3JnLzE5OTkvMDIvMjItcmRmLXN5bnRheC1ucyMiIHhtbG5zOnNvZGlwb2RpPSJodHRwOi8vc29kaXBvZGkuc291cmNlZm9yZ2UubmV0L0RURC9zb2RpcG9kaS0wLmR0ZCIgeG1sbnM6c3ZnPSJodHRwOi8vd3d3LnczLm9yZy8yMDAwL3N2ZyIgeG1sbnM9Imh0dHA6Ly93d3cudzMub3JnLzIwMDAvc3ZnIiB4bWxuczp4bGluaz0iaHR0cDovL3d3dy53My5vcmcvMTk5OS94bGluayIgdmVyc2lvbj0iMS4xIiBpZD0ic3ZnMjUzOTI0IiBpbmtzY2FwZTp2ZXJzaW9uPSIwLjkyLjMgKDI0MDU1NDYsIDIwMTgtMDMtMTEpIiBzb2RpcG9kaTpkb2NuYW1lPSJzYXAuc3ZnIiB4PSIwcHgiIHk9IjBweCIgdmlld0JveD0iMCAwIDUwLjE4IDI0Ljg3IiBzdHlsZT0iZW5hYmxlLWJhY2tncm91bmQ6bmV3IDAgMCA1MC4xOCAyNC44NzsiIHhtbDpzcGFjZT0icHJlc2VydmUiPiYjeGE7PHNvZGlwb2RpOm5hbWVkdmlldyBib3JkZXJjb2xvcj0iIzY2NjY2NiIgYm9yZGVyb3BhY2l0eT0iMSIgZml0LW1hcmdpbi1ib3R0b209IjAiIGZpdC1tYXJnaW4tbGVmdD0iMCIgZml0LW1hcmdpbi1yaWdodD0iMCIgZml0LW1hcmdpbi10b3A9IjAiIGdyaWR0b2xlcmFuY2U9IjEwIiBndWlkZXRvbGVyYW5jZT0iMTAiIGlkPSJuYW1lZHZpZXcyNTM5MjYiIGlua3NjYXBlOmN1cnJlbnQtbGF5ZXI9InN2ZzI1MzkyNCIgaW5rc2NhcGU6Y3g9IjMzLjQ1NTg3IiBpbmtzY2FwZTpjeT0iMTYuNTc3OTY3IiBpbmtzY2FwZTpwYWdlb3BhY2l0eT0iMCIgaW5rc2NhcGU6cGFnZXNoYWRvdz0iMiIgaW5rc2NhcGU6d2luZG93LWhlaWdodD0iMTAxNyIgaW5rc2NhcGU6d2luZG93LW1heGltaXplZD0iMSIgaW5rc2NhcGU6d2luZG93LXdpZHRoPSIxOTIwIiBpbmtzY2FwZTp3aW5kb3cteD0iLTgiIGlua3NjYXBlOndpbmRvdy15PSItOCIgaW5rc2NhcGU6em9vbT0iMjQuNjU1OTQ0IiBvYmplY3R0b2xlcmFuY2U9IjEwIiBwYWdlY29sb3I9IiNmZmZmZmYiIHNob3dncmlkPSJmYWxzZSI+JiN4YTsJPC9zb2RpcG9kaTpuYW1lZHZpZXc+JiN4YTs8ZyBpZD0iZzI1MzkyMiIgdHJhbnNmb3JtPSJ0cmFuc2xhdGUoLTAuNzUwMDUxNzEsLTAuNzUyNjgxNykiPiYjeGE7CTx0aXRsZSBpZD0idGl0bGUyNTM5MDIiPlBhZ2UtMTwvdGl0bGU+JiN4YTsJPGcgaWQ9Imdyb3VwNTgwMS0xIiB0cmFuc2Zvcm09InRyYW5zbGF0ZSgwLjc1LC0wLjc1KSI+JiN4YTsJCTx0aXRsZSBpZD0idGl0bGUyNTM5MDQiPlNBUDwvdGl0bGU+JiN4YTsJCTxnIGlkPSJzaGFwZTU4MDItMiIgdHJhbnNmb3JtPSJ0cmFuc2xhdGUoMCwtMC4wMzczMTgzKSI+JiN4YTsJCQk8dGl0bGUgaWQ9InRpdGxlMjUzOTA2Ij5wYXRoMjUwMzA8L3RpdGxlPiYjeGE7CQkJPHBhdGggaWQ9InBhdGgyNTM5MDgiIGlua3NjYXBlOmNvbm5lY3Rvci1jdXJ2YXR1cmU9IjAiIHN0eWxlPSJmaWxsOiMwMTQxODU7IiBkPSJNMCwyNi4zN2gyNS4zNEw1MC4xOCwxLjU0SDBWMjYuMzd6Ii8+JiN4YTsJCTwvZz4mI3hhOwkJPGcgaWQ9InNoYXBlNTgwMy00IiB0cmFuc2Zvcm09InRyYW5zbGF0ZSgwLjY4NzQ1MSwtNC41ODUzKSI+JiN4YTsJCQk8dGl0bGUgaWQ9InRpdGxlMjUzOTExIj5wYXRoMjUwMzI8L3RpdGxlPiYjeGE7CQkJPHBhdGggaWQ9InBhdGgyNTM5MTMiIGlua3NjYXBlOmNvbm5lY3Rvci1jdXJ2YXR1cmU9IjAiIHN0eWxlPSJmaWxsOiNGRkZGRkY7IiBkPSJNMjkuMDcsMTAuNzVoLTQuOTFWMjIuNWwtNC4zMi0xMS43NWgtNC4yMyAgICAgbC0zLjczLDkuODNjLTAuMzktMi40OC0yLjk0LTMuMzMtNS4wMS0zLjk3Yy0xLjI3LTAuNDMtMi43NS0xLjA3LTIuNjUtMS43NmMwLTAuNTcsMC42OS0xLjEsMi4xNi0xLjAyICAgICBjMC45OSwwLjA1LDEuODcsMC4xMywzLjY0LDAuOThsMS43Ni0zYy0xLjY2LTAuODEtMy44My0xLjMyLTUuNTktMS4zMmMtMi4xNiwwLTMuOTMsMC42OC01LjAxLDEuODFDMC40OSwxMy4wOCwwLDE0LjA3LDAsMTUuMTggICAgIGMwLDEuNTEsMC41OSwyLjU5LDEuNjcsMy40NWMxLjA4LDAuNzIsMi4yNiwxLjE5LDMuNDQsMS41NGMxLjM3LDAuNDIsMi40NSwwLjc5LDIuNDUsMS41OGMwLDAuMjktMC4xLDAuNTYtMC4yOSwwLjc3ICAgICBjLTAuNCwwLjM1LTAuODksMC40OC0xLjY3LDAuNWMtMS4zOCwwLjAzLTIuMzYtMC4xOS00LjAzLTEuMTdMMCwyNC44OGMxLjY3LDAuOTQsMy42MywxLjQ5LDUuNiwxLjQ5aDAuMjkgICAgIGMxLjY3LTAuMDMsMy4xNS0wLjUzLDQuMjMtMS40M2MwLjA5LTAuMDUsMC4wOS0wLjEsMC4xOS0wLjE1bC0wLjQ5LDEuMzJoNC41MmwwLjY5LTIuMjljMC43OCwwLjI3LDEuNjcsMC40MiwyLjY1LDAuNDIgICAgIGMwLjk4LDAsMS43Ny0wLjE1LDIuNTUtMC40bDAuNzksMi4yN2g3LjI2di00Ljc0aDEuNjdjMy44MywwLDYuMDktMS45Nyw2LjA5LTUuMjZDMzYuMDQsMTIuNDQsMzMuODgsMTAuNzUsMjkuMDcsMTAuNzV6ICAgICAgTTE3LjY4LDIwLjgxYy0wLjU5LDAtMS4wOC0wLjEtMS41Ny0wLjI4bDEuNTctNC45NGwxLjU3LDQuOTZDMTguNzYsMjAuNzEsMTguMjcsMjAuODEsMTcuNjgsMjAuODF6IE0yOS4zNiwxNy45N2gtMS4wOHYtMy45OSAgICAgaDEuMDhjMS40OCwwLDIuNjYsMC40OSwyLjY2LDEuOThDMzIuMDIsMTcuNDksMzAuODQsMTcuOTcsMjkuMzYsMTcuOTd6Ii8+JiN4YTsJCTwvZz4mI3hhOwkJPGcgaWQ9InNoYXBlNTgwNC02IiB0cmFuc2Zvcm09InRyYW5zbGF0ZSgzMS4xMzE3KSI+JiN4YTsJCQk8dGl0bGUgaWQ9InRpdGxlMjUzOTE2Ij5wYXRoMjUwMzQ8L3RpdGxlPiYjeGE7CQkJPHBhdGggaWQ9InBhdGgyNTM5MTgiIGlua3NjYXBlOmNvbm5lY3Rvci1jdXJ2YXR1cmU9IjAiIHN0eWxlPSJmaWxsOiMwMTQxODU7IiBkPSJNMC4zOSwyNC43NWMwLTAuNzYsMC41OS0xLjM0LDEuMjgtMS4zNCAgICAgczEuMjgsMC41OCwxLjI4LDEuMzRjMCwwLjc5LTAuNTksMS4zNS0xLjI4LDEuMzVTMC4zOSwyNS41NCwwLjM5LDI0Ljc1eiBNMS42NywyNi4zN2MwLjg4LDAsMS42Ny0wLjY5LDEuNjctMS42MiAgICAgYzAtMC45Mi0wLjc5LTEuNi0xLjY3LTEuNlMwLDIzLjgzLDAsMjQuNzVDMCwyNS42OCwwLjc5LDI2LjM3LDEuNjcsMjYuMzd6IE0xLjM3LDI0Ljg4aDAuM2wwLjQ5LDAuOGgwLjNsLTAuNS0wLjgxICAgICBjMC4yLTAuMDQsMC41LTAuMTgsMC41LTAuNTFjMC0wLjM3LTAuMy0wLjUzLTAuNjktMC41M0gxLjA4djEuODVoMC4yOUwxLjM3LDI0Ljg4eiBNMS4zNywyNC42NHYtMC41OGgwLjQgICAgIGMwLjEsMCwwLjM5LDAuMDUsMC4zOSwwLjI4YzAsMC4yOC0wLjI5LDAuMy0wLjQ5LDAuM0gxLjM3eiIvPiYjeGE7CQk8L2c+JiN4YTsJPC9nPiYjeGE7PC9nPiYjeGE7PC9zdmc+;" parent="1" vertex="1">
          <mxGeometry x="510" y="610" width="50" height="25" as="geometry" />
        </mxCell>
        <mxCell id="_8wzOPU7wJIFaHoj3cJt-13" value="CIDR" style="swimlane;fontStyle=0;childLayout=stackLayout;horizontal=1;startSize=26;horizontalStack=0;resizeParent=1;resizeParentMax=0;resizeLast=0;collapsible=1;marginBottom=0;" parent="1" vertex="1">
          <mxGeometry x="920" y="300" width="190" height="104" as="geometry" />
        </mxCell>
        <mxCell id="_8wzOPU7wJIFaHoj3cJt-14" value="10.8.0.0/16, 10.9.0.0/16" style="text;strokeColor=none;fillColor=none;align=left;verticalAlign=top;spacingLeft=4;spacingRight=4;overflow=hidden;rotatable=0;points=[[0,0.5],[1,0.5]];portConstraint=eastwest;" parent="_8wzOPU7wJIFaHoj3cJt-13" vertex="1">
          <mxGeometry y="26" width="190" height="26" as="geometry" />
        </mxCell>
        <mxCell id="_8wzOPU7wJIFaHoj3cJt-15" value="10.10.0.0/16,10.15.0.0/16&#xa;&#xa;" style="text;strokeColor=none;fillColor=none;align=left;verticalAlign=top;spacingLeft=4;spacingRight=4;overflow=hidden;rotatable=0;points=[[0,0.5],[1,0.5]];portConstraint=eastwest;" parent="_8wzOPU7wJIFaHoj3cJt-13" vertex="1">
          <mxGeometry y="52" width="190" height="26" as="geometry" />
        </mxCell>
        <mxCell id="_8wzOPU7wJIFaHoj3cJt-16" value="10.16.0.0/16" style="text;strokeColor=none;fillColor=none;align=left;verticalAlign=top;spacingLeft=4;spacingRight=4;overflow=hidden;rotatable=0;points=[[0,0.5],[1,0.5]];portConstraint=eastwest;" parent="_8wzOPU7wJIFaHoj3cJt-13" vertex="1">
          <mxGeometry y="78" width="190" height="26" as="geometry" />
        </mxCell>
        <mxCell id="_8wzOPU7wJIFaHoj3cJt-17" value="Account:683972385206" style="text;html=1;align=center;verticalAlign=middle;resizable=0;points=[];autosize=1;strokeColor=none;" parent="1" vertex="1">
          <mxGeometry x="1020" y="220" width="140" height="20" as="geometry" />
        </mxCell>
      </root>
    </mxGraphModel>
  </diagram>
  <diagram id="QiQ_LJBox0uKUDYQwuWy" name="Gigya-PCI">
    <mxGraphModel dx="1666" dy="769" grid="1" gridSize="10" guides="1" tooltips="1" connect="1" arrows="1" fold="1" page="1" pageScale="1" pageWidth="850" pageHeight="1100" math="0" shadow="0">
      <root>
        <mxCell id="yu-SjEQ4_HWFC0-XldRP-0" />
        <mxCell id="yu-SjEQ4_HWFC0-XldRP-1" parent="yu-SjEQ4_HWFC0-XldRP-0" />
        <mxCell id="yu-SjEQ4_HWFC0-XldRP-6" value="&lt;b&gt;&lt;font style=&quot;font-size: 18px&quot;&gt;AWS&lt;/font&gt;&lt;/b&gt;" style="ellipse;shape=cloud;whiteSpace=wrap;html=1;shadow=1;" parent="yu-SjEQ4_HWFC0-XldRP-1" vertex="1">
          <mxGeometry x="700" y="164" width="1090" height="586" as="geometry" />
        </mxCell>
        <mxCell id="RkpmPU22vl3A4dNBd53z-0" value="" style="whiteSpace=wrap;html=1;" vertex="1" parent="yu-SjEQ4_HWFC0-XldRP-1">
          <mxGeometry x="860" y="330" width="240" height="190" as="geometry" />
        </mxCell>
        <mxCell id="yu-SjEQ4_HWFC0-XldRP-2" value="&lt;font style=&quot;font-size: 18px&quot;&gt;&lt;b&gt;SAP Network&lt;/b&gt;&lt;/font&gt;" style="ellipse;shape=cloud;whiteSpace=wrap;html=1;" parent="yu-SjEQ4_HWFC0-XldRP-1" vertex="1">
          <mxGeometry x="210" y="540" width="443" height="250" as="geometry" />
        </mxCell>
        <mxCell id="yu-SjEQ4_HWFC0-XldRP-4" value="Home" style="shape=image;verticalLabelPosition=bottom;verticalAlign=top;imageAspect=0;aspect=fixed;image=data:image/svg+xml,PHN2ZyB4bWxucz0iaHR0cDovL3d3dy53My5vcmcvMjAwMC9zdmciIHZlcnNpb249IjEiIHZpZXdCb3g9IjAgMCA0OCA0OCIgZW5hYmxlLWJhY2tncm91bmQ9Im5ldyAwIDAgNDggNDgiPiYjeGE7ICAgIDxwb2x5Z29uIGZpbGw9IiNFOEVBRjYiIHBvaW50cz0iNDIsMzkgNiwzOSA2LDIzIDI0LDYgNDIsMjMiLz4mI3hhOyAgICA8ZyBmaWxsPSIjQzVDQUU5Ij4mI3hhOyAgICAgICAgPHBvbHlnb24gcG9pbnRzPSIzOSwyMSAzNCwxNiAzNCw5IDM5LDkiLz4mI3hhOyAgICAgICAgPHJlY3QgeD0iNiIgeT0iMzkiIHdpZHRoPSIzNiIgaGVpZ2h0PSI1Ii8+JiN4YTsgICAgPC9nPiYjeGE7ICAgIDxwb2x5Z29uIGZpbGw9IiNCNzFDMUMiIHBvaW50cz0iMjQsNC4zIDQsMjIuOSA2LDI1LjEgMjQsOC40IDQyLDI1LjEgNDQsMjIuOSIvPiYjeGE7ICAgIDxyZWN0IHg9IjE4IiB5PSIyOCIgZmlsbD0iI0Q4NDMxNSIgd2lkdGg9IjEyIiBoZWlnaHQ9IjE2Ii8+JiN4YTsgICAgPHJlY3QgeD0iMjEiIHk9IjE3IiBmaWxsPSIjMDE1NzlCIiB3aWR0aD0iNiIgaGVpZ2h0PSI2Ii8+JiN4YTsgICAgPHBhdGggZmlsbD0iI0ZGOEE2NSIgZD0iTTI3LjUsMzUuNWMtMC4zLDAtMC41LDAuMi0wLjUsMC41djJjMCwwLjMsMC4yLDAuNSwwLjUsMC41UzI4LDM4LjMsMjgsMzh2LTJDMjgsMzUuNywyNy44LDM1LjUsMjcuNSwzNS41eiIvPiYjeGE7PC9zdmc+;labelBackgroundColor=#ffffff;" parent="yu-SjEQ4_HWFC0-XldRP-1" vertex="1">
          <mxGeometry x="390" y="340" width="64" height="64" as="geometry" />
        </mxCell>
        <mxCell id="yu-SjEQ4_HWFC0-XldRP-10" value="" style="shape=image;verticalLabelPosition=bottom;labelBackgroundColor=#ffffff;verticalAlign=top;aspect=fixed;imageAspect=0;image=data:image/svg+xml,PHN2ZyB4bWxuczpjYz0iaHR0cDovL2NyZWF0aXZlY29tbW9ucy5vcmcvbnMjIiB4bWxuczpkYz0iaHR0cDovL3B1cmwub3JnL2RjL2VsZW1lbnRzLzEuMS8iIHhtbG5zOmlua3NjYXBlPSJodHRwOi8vd3d3Lmlua3NjYXBlLm9yZy9uYW1lc3BhY2VzL2lua3NjYXBlIiB4bWxuczpyZGY9Imh0dHA6Ly93d3cudzMub3JnLzE5OTkvMDIvMjItcmRmLXN5bnRheC1ucyMiIHhtbG5zOnNvZGlwb2RpPSJodHRwOi8vc29kaXBvZGkuc291cmNlZm9yZ2UubmV0L0RURC9zb2RpcG9kaS0wLmR0ZCIgeG1sbnM6c3ZnPSJodHRwOi8vd3d3LnczLm9yZy8yMDAwL3N2ZyIgeG1sbnM9Imh0dHA6Ly93d3cudzMub3JnLzIwMDAvc3ZnIiB4bWxuczp4bGluaz0iaHR0cDovL3d3dy53My5vcmcvMTk5OS94bGluayIgdmVyc2lvbj0iMS4xIiBpZD0ic3ZnMjUzOTI0IiBpbmtzY2FwZTp2ZXJzaW9uPSIwLjkyLjMgKDI0MDU1NDYsIDIwMTgtMDMtMTEpIiBzb2RpcG9kaTpkb2NuYW1lPSJzYXAuc3ZnIiB4PSIwcHgiIHk9IjBweCIgdmlld0JveD0iMCAwIDUwLjE4IDI0Ljg3IiBzdHlsZT0iZW5hYmxlLWJhY2tncm91bmQ6bmV3IDAgMCA1MC4xOCAyNC44NzsiIHhtbDpzcGFjZT0icHJlc2VydmUiPiYjeGE7PHNvZGlwb2RpOm5hbWVkdmlldyBib3JkZXJjb2xvcj0iIzY2NjY2NiIgYm9yZGVyb3BhY2l0eT0iMSIgZml0LW1hcmdpbi1ib3R0b209IjAiIGZpdC1tYXJnaW4tbGVmdD0iMCIgZml0LW1hcmdpbi1yaWdodD0iMCIgZml0LW1hcmdpbi10b3A9IjAiIGdyaWR0b2xlcmFuY2U9IjEwIiBndWlkZXRvbGVyYW5jZT0iMTAiIGlkPSJuYW1lZHZpZXcyNTM5MjYiIGlua3NjYXBlOmN1cnJlbnQtbGF5ZXI9InN2ZzI1MzkyNCIgaW5rc2NhcGU6Y3g9IjMzLjQ1NTg3IiBpbmtzY2FwZTpjeT0iMTYuNTc3OTY3IiBpbmtzY2FwZTpwYWdlb3BhY2l0eT0iMCIgaW5rc2NhcGU6cGFnZXNoYWRvdz0iMiIgaW5rc2NhcGU6d2luZG93LWhlaWdodD0iMTAxNyIgaW5rc2NhcGU6d2luZG93LW1heGltaXplZD0iMSIgaW5rc2NhcGU6d2luZG93LXdpZHRoPSIxOTIwIiBpbmtzY2FwZTp3aW5kb3cteD0iLTgiIGlua3NjYXBlOndpbmRvdy15PSItOCIgaW5rc2NhcGU6em9vbT0iMjQuNjU1OTQ0IiBvYmplY3R0b2xlcmFuY2U9IjEwIiBwYWdlY29sb3I9IiNmZmZmZmYiIHNob3dncmlkPSJmYWxzZSI+JiN4YTsJPC9zb2RpcG9kaTpuYW1lZHZpZXc+JiN4YTs8ZyBpZD0iZzI1MzkyMiIgdHJhbnNmb3JtPSJ0cmFuc2xhdGUoLTAuNzUwMDUxNzEsLTAuNzUyNjgxNykiPiYjeGE7CTx0aXRsZSBpZD0idGl0bGUyNTM5MDIiPlBhZ2UtMTwvdGl0bGU+JiN4YTsJPGcgaWQ9Imdyb3VwNTgwMS0xIiB0cmFuc2Zvcm09InRyYW5zbGF0ZSgwLjc1LC0wLjc1KSI+JiN4YTsJCTx0aXRsZSBpZD0idGl0bGUyNTM5MDQiPlNBUDwvdGl0bGU+JiN4YTsJCTxnIGlkPSJzaGFwZTU4MDItMiIgdHJhbnNmb3JtPSJ0cmFuc2xhdGUoMCwtMC4wMzczMTgzKSI+JiN4YTsJCQk8dGl0bGUgaWQ9InRpdGxlMjUzOTA2Ij5wYXRoMjUwMzA8L3RpdGxlPiYjeGE7CQkJPHBhdGggaWQ9InBhdGgyNTM5MDgiIGlua3NjYXBlOmNvbm5lY3Rvci1jdXJ2YXR1cmU9IjAiIHN0eWxlPSJmaWxsOiMwMTQxODU7IiBkPSJNMCwyNi4zN2gyNS4zNEw1MC4xOCwxLjU0SDBWMjYuMzd6Ii8+JiN4YTsJCTwvZz4mI3hhOwkJPGcgaWQ9InNoYXBlNTgwMy00IiB0cmFuc2Zvcm09InRyYW5zbGF0ZSgwLjY4NzQ1MSwtNC41ODUzKSI+JiN4YTsJCQk8dGl0bGUgaWQ9InRpdGxlMjUzOTExIj5wYXRoMjUwMzI8L3RpdGxlPiYjeGE7CQkJPHBhdGggaWQ9InBhdGgyNTM5MTMiIGlua3NjYXBlOmNvbm5lY3Rvci1jdXJ2YXR1cmU9IjAiIHN0eWxlPSJmaWxsOiNGRkZGRkY7IiBkPSJNMjkuMDcsMTAuNzVoLTQuOTFWMjIuNWwtNC4zMi0xMS43NWgtNC4yMyAgICAgbC0zLjczLDkuODNjLTAuMzktMi40OC0yLjk0LTMuMzMtNS4wMS0zLjk3Yy0xLjI3LTAuNDMtMi43NS0xLjA3LTIuNjUtMS43NmMwLTAuNTcsMC42OS0xLjEsMi4xNi0xLjAyICAgICBjMC45OSwwLjA1LDEuODcsMC4xMywzLjY0LDAuOThsMS43Ni0zYy0xLjY2LTAuODEtMy44My0xLjMyLTUuNTktMS4zMmMtMi4xNiwwLTMuOTMsMC42OC01LjAxLDEuODFDMC40OSwxMy4wOCwwLDE0LjA3LDAsMTUuMTggICAgIGMwLDEuNTEsMC41OSwyLjU5LDEuNjcsMy40NWMxLjA4LDAuNzIsMi4yNiwxLjE5LDMuNDQsMS41NGMxLjM3LDAuNDIsMi40NSwwLjc5LDIuNDUsMS41OGMwLDAuMjktMC4xLDAuNTYtMC4yOSwwLjc3ICAgICBjLTAuNCwwLjM1LTAuODksMC40OC0xLjY3LDAuNWMtMS4zOCwwLjAzLTIuMzYtMC4xOS00LjAzLTEuMTdMMCwyNC44OGMxLjY3LDAuOTQsMy42MywxLjQ5LDUuNiwxLjQ5aDAuMjkgICAgIGMxLjY3LTAuMDMsMy4xNS0wLjUzLDQuMjMtMS40M2MwLjA5LTAuMDUsMC4wOS0wLjEsMC4xOS0wLjE1bC0wLjQ5LDEuMzJoNC41MmwwLjY5LTIuMjljMC43OCwwLjI3LDEuNjcsMC40MiwyLjY1LDAuNDIgICAgIGMwLjk4LDAsMS43Ny0wLjE1LDIuNTUtMC40bDAuNzksMi4yN2g3LjI2di00Ljc0aDEuNjdjMy44MywwLDYuMDktMS45Nyw2LjA5LTUuMjZDMzYuMDQsMTIuNDQsMzMuODgsMTAuNzUsMjkuMDcsMTAuNzV6ICAgICAgTTE3LjY4LDIwLjgxYy0wLjU5LDAtMS4wOC0wLjEtMS41Ny0wLjI4bDEuNTctNC45NGwxLjU3LDQuOTZDMTguNzYsMjAuNzEsMTguMjcsMjAuODEsMTcuNjgsMjAuODF6IE0yOS4zNiwxNy45N2gtMS4wOHYtMy45OSAgICAgaDEuMDhjMS40OCwwLDIuNjYsMC40OSwyLjY2LDEuOThDMzIuMDIsMTcuNDksMzAuODQsMTcuOTcsMjkuMzYsMTcuOTd6Ii8+JiN4YTsJCTwvZz4mI3hhOwkJPGcgaWQ9InNoYXBlNTgwNC02IiB0cmFuc2Zvcm09InRyYW5zbGF0ZSgzMS4xMzE3KSI+JiN4YTsJCQk8dGl0bGUgaWQ9InRpdGxlMjUzOTE2Ij5wYXRoMjUwMzQ8L3RpdGxlPiYjeGE7CQkJPHBhdGggaWQ9InBhdGgyNTM5MTgiIGlua3NjYXBlOmNvbm5lY3Rvci1jdXJ2YXR1cmU9IjAiIHN0eWxlPSJmaWxsOiMwMTQxODU7IiBkPSJNMC4zOSwyNC43NWMwLTAuNzYsMC41OS0xLjM0LDEuMjgtMS4zNCAgICAgczEuMjgsMC41OCwxLjI4LDEuMzRjMCwwLjc5LTAuNTksMS4zNS0xLjI4LDEuMzVTMC4zOSwyNS41NCwwLjM5LDI0Ljc1eiBNMS42NywyNi4zN2MwLjg4LDAsMS42Ny0wLjY5LDEuNjctMS42MiAgICAgYzAtMC45Mi0wLjc5LTEuNi0xLjY3LTEuNlMwLDIzLjgzLDAsMjQuNzVDMCwyNS42OCwwLjc5LDI2LjM3LDEuNjcsMjYuMzd6IE0xLjM3LDI0Ljg4aDAuM2wwLjQ5LDAuOGgwLjNsLTAuNS0wLjgxICAgICBjMC4yLTAuMDQsMC41LTAuMTgsMC41LTAuNTFjMC0wLjM3LTAuMy0wLjUzLTAuNjktMC41M0gxLjA4djEuODVoMC4yOUwxLjM3LDI0Ljg4eiBNMS4zNywyNC42NHYtMC41OGgwLjQgICAgIGMwLjEsMCwwLjM5LDAuMDUsMC4zOSwwLjI4YzAsMC4yOC0wLjI5LDAuMy0wLjQ5LDAuM0gxLjM3eiIvPiYjeGE7CQk8L2c+JiN4YTsJPC9nPiYjeGE7PC9nPiYjeGE7PC9zdmc+;" parent="yu-SjEQ4_HWFC0-XldRP-1" vertex="1">
          <mxGeometry x="406.5" y="679" width="50" height="25" as="geometry" />
        </mxCell>
        <mxCell id="yu-SjEQ4_HWFC0-XldRP-11" value="CIDR" style="swimlane;fontStyle=0;childLayout=stackLayout;horizontal=1;startSize=26;horizontalStack=0;resizeParent=1;resizeParentMax=0;resizeLast=0;collapsible=1;marginBottom=0;" parent="yu-SjEQ4_HWFC0-XldRP-1" vertex="1">
          <mxGeometry x="1400" y="370" width="160" height="100" as="geometry" />
        </mxCell>
        <mxCell id="yu-SjEQ4_HWFC0-XldRP-12" value="10.8.0.0/16, 10.9.0.0/16" style="text;strokeColor=none;fillColor=none;align=left;verticalAlign=top;spacingLeft=4;spacingRight=4;overflow=hidden;rotatable=0;points=[[0,0.5],[1,0.5]];portConstraint=eastwest;" parent="yu-SjEQ4_HWFC0-XldRP-11" vertex="1">
          <mxGeometry y="26" width="160" height="22" as="geometry" />
        </mxCell>
        <mxCell id="yu-SjEQ4_HWFC0-XldRP-13" value="10.10.0.0/16,10.15.0.0/16&#xa;&#xa;" style="text;strokeColor=none;fillColor=none;align=left;verticalAlign=top;spacingLeft=4;spacingRight=4;overflow=hidden;rotatable=0;points=[[0,0.5],[1,0.5]];portConstraint=eastwest;" parent="yu-SjEQ4_HWFC0-XldRP-11" vertex="1">
          <mxGeometry y="48" width="160" height="26" as="geometry" />
        </mxCell>
        <mxCell id="yu-SjEQ4_HWFC0-XldRP-14" value="10.16.0.0/16" style="text;strokeColor=none;fillColor=none;align=left;verticalAlign=top;spacingLeft=4;spacingRight=4;overflow=hidden;rotatable=0;points=[[0,0.5],[1,0.5]];portConstraint=eastwest;" parent="yu-SjEQ4_HWFC0-XldRP-11" vertex="1">
          <mxGeometry y="74" width="160" height="26" as="geometry" />
        </mxCell>
        <mxCell id="yu-SjEQ4_HWFC0-XldRP-16" value="PCI&lt;br&gt;" style="text;html=1;align=center;verticalAlign=middle;resizable=0;points=[];autosize=1;strokeColor=none;" parent="yu-SjEQ4_HWFC0-XldRP-1" vertex="1">
          <mxGeometry x="740" y="530" width="40" height="20" as="geometry" />
        </mxCell>
        <mxCell id="yu-SjEQ4_HWFC0-XldRP-17" value="WDF/ROT&lt;br&gt;&lt;span style=&quot;text-align: left&quot;&gt;10.0.0.0/8&lt;/span&gt;" style="text;html=1;align=center;verticalAlign=middle;resizable=0;points=[];autosize=1;strokeColor=none;" parent="yu-SjEQ4_HWFC0-XldRP-1" vertex="1">
          <mxGeometry x="445" y="600" width="70" height="30" as="geometry" />
        </mxCell>
        <mxCell id="yu-SjEQ4_HWFC0-XldRP-21" value="SAP Big F5&#xa;VPN&#xa;" style="shape=image;verticalLabelPosition=bottom;verticalAlign=top;imageAspect=0;aspect=fixed;image=data:image/svg+xml,PHN2ZyB4bWxucz0iaHR0cDovL3d3dy53My5vcmcvMjAwMC9zdmciIHZlcnNpb249IjEiIHZpZXdCb3g9IjAgMCA0OCA0OCIgZW5hYmxlLWJhY2tncm91bmQ9Im5ldyAwIDAgNDggNDgiPiYjeGE7ICAgIDxwYXRoIGZpbGw9IiM0MjQyNDIiIGQ9Ik0yNCw0Yy01LjUsMC0xMCw0LjUtMTAsMTB2NGg0di00YzAtMy4zLDIuNy02LDYtNnM2LDIuNyw2LDZ2NGg0di00QzM0LDguNSwyOS41LDQsMjQsNHoiLz4mI3hhOyAgICA8cGF0aCBmaWxsPSIjRkI4QzAwIiBkPSJNMzYsNDRIMTJjLTIuMiwwLTQtMS44LTQtNFYyMmMwLTIuMiwxLjgtNCw0LTRoMjRjMi4yLDAsNCwxLjgsNCw0djE4QzQwLDQyLjIsMzguMiw0NCwzNiw0NHoiLz4mI3hhOyAgICA8Y2lyY2xlIGZpbGw9IiNDNzZFMDAiIGN4PSIyNCIgY3k9IjMxIiByPSIzIi8+JiN4YTs8L3N2Zz4=;labelBackgroundColor=#ffffff;" parent="yu-SjEQ4_HWFC0-XldRP-1" vertex="1">
          <mxGeometry x="270" y="572" width="48" height="48" as="geometry" />
        </mxCell>
        <mxCell id="_YUXUW4lNlcTGszDx6N4-0" style="edgeStyle=orthogonalEdgeStyle;rounded=0;orthogonalLoop=1;jettySize=auto;html=1;curved=1;" parent="yu-SjEQ4_HWFC0-XldRP-1" edge="1">
          <mxGeometry relative="1" as="geometry">
            <mxPoint x="390" y="372" as="sourcePoint" />
            <mxPoint x="304" y="580" as="targetPoint" />
            <Array as="points">
              <mxPoint x="350" y="372" />
              <mxPoint x="350" y="580" />
            </Array>
          </mxGeometry>
        </mxCell>
        <mxCell id="azQLa_PY3T6s6BHJI2Fu-0" value="" style="swimlane;startSize=0;" parent="yu-SjEQ4_HWFC0-XldRP-1" vertex="1">
          <mxGeometry x="520" y="577" width="60" height="38" as="geometry" />
        </mxCell>
        <mxCell id="azQLa_PY3T6s6BHJI2Fu-1" value="Zone 3" style="text;html=1;align=center;verticalAlign=middle;resizable=0;points=[];autosize=1;strokeColor=default;" parent="azQLa_PY3T6s6BHJI2Fu-0" vertex="1">
          <mxGeometry x="5" y="9" width="50" height="20" as="geometry" />
        </mxCell>
        <mxCell id="xXc8IUvG-Q4nKvIilD_s-1" style="edgeStyle=orthogonalEdgeStyle;curved=1;orthogonalLoop=1;jettySize=auto;html=1;endArrow=blockThin;endFill=1;strokeColor=default;entryX=-0.064;entryY=0.571;entryDx=0;entryDy=0;entryPerimeter=0;" parent="yu-SjEQ4_HWFC0-XldRP-1" source="azQLa_PY3T6s6BHJI2Fu-1" target="xXc8IUvG-Q4nKvIilD_s-13" edge="1">
          <mxGeometry relative="1" as="geometry">
            <mxPoint x="760" y="470" as="targetPoint" />
            <Array as="points">
              <mxPoint x="550" y="540" />
              <mxPoint x="760" y="540" />
              <mxPoint x="760" y="439" />
            </Array>
          </mxGeometry>
        </mxCell>
        <mxCell id="xXc8IUvG-Q4nKvIilD_s-3" value="bandwidth: 500M" style="text;html=1;resizable=0;autosize=1;align=center;verticalAlign=middle;points=[];fillColor=none;strokeColor=none;rounded=0;sketch=1;" parent="yu-SjEQ4_HWFC0-XldRP-1" vertex="1">
          <mxGeometry x="660" y="557" width="110" height="20" as="geometry" />
        </mxCell>
        <mxCell id="xXc8IUvG-Q4nKvIilD_s-14" style="edgeStyle=orthogonalEdgeStyle;curved=1;orthogonalLoop=1;jettySize=auto;html=1;endArrow=blockThin;endFill=1;strokeColor=default;" parent="yu-SjEQ4_HWFC0-XldRP-1" target="yu-SjEQ4_HWFC0-XldRP-2" edge="1">
          <mxGeometry relative="1" as="geometry">
            <mxPoint x="1022.47" y="670" as="targetPoint" />
            <mxPoint x="880" y="460" as="sourcePoint" />
            <Array as="points">
              <mxPoint x="770" y="460" />
              <mxPoint x="770" y="700" />
            </Array>
          </mxGeometry>
        </mxCell>
        <mxCell id="899tyQHLzr_Wn1gr1Lwd-0" value="CheckMarx" style="text;html=1;align=center;verticalAlign=middle;resizable=0;points=[];autosize=1;strokeColor=default;" parent="yu-SjEQ4_HWFC0-XldRP-1" vertex="1">
          <mxGeometry x="560" y="684" width="80" height="20" as="geometry" />
        </mxCell>
        <mxCell id="yu-SjEQ4_HWFC0-XldRP-8" value="" style="outlineConnect=0;dashed=0;verticalLabelPosition=bottom;verticalAlign=top;align=center;html=1;shape=mxgraph.aws3.vpn_gateway;fillColor=#F58534;gradientColor=none;" parent="yu-SjEQ4_HWFC0-XldRP-1" vertex="1">
          <mxGeometry x="1060" y="260" width="30" height="40" as="geometry" />
        </mxCell>
        <mxCell id="yu-SjEQ4_HWFC0-XldRP-18" value="&lt;span style=&quot;color: rgb(234 , 67 , 53) ; font-family: &amp;#34;arial&amp;#34; , sans-serif ; font-size: 14px ; text-align: left ; background-color: rgb(255 , 255 , 255)&quot;&gt;eu-central-1&lt;/span&gt;" style="text;html=1;align=center;verticalAlign=middle;resizable=0;points=[];autosize=1;strokeColor=none;" parent="yu-SjEQ4_HWFC0-XldRP-1" vertex="1">
          <mxGeometry x="1095" y="274.25" width="90" height="20" as="geometry" />
        </mxCell>
        <mxCell id="xXc8IUvG-Q4nKvIilD_s-9" style="orthogonalLoop=1;jettySize=auto;html=1;entryX=0;entryY=0.5;entryDx=0;entryDy=0;endArrow=blockThin;endFill=1;strokeColor=default;edgeStyle=orthogonalEdgeStyle;curved=1;" parent="yu-SjEQ4_HWFC0-XldRP-1" source="yu-SjEQ4_HWFC0-XldRP-22" target="xXc8IUvG-Q4nKvIilD_s-6" edge="1">
          <mxGeometry relative="1" as="geometry">
            <mxPoint x="1110" y="430" as="sourcePoint" />
          </mxGeometry>
        </mxCell>
        <mxCell id="xXc8IUvG-Q4nKvIilD_s-10" style="edgeStyle=orthogonalEdgeStyle;curved=1;orthogonalLoop=1;jettySize=auto;html=1;exitX=1;exitY=0.5;exitDx=0;exitDy=0;endArrow=blockThin;endFill=1;strokeColor=default;" parent="yu-SjEQ4_HWFC0-XldRP-1" source="yu-SjEQ4_HWFC0-XldRP-22" target="xXc8IUvG-Q4nKvIilD_s-7" edge="1">
          <mxGeometry relative="1" as="geometry" />
        </mxCell>
        <mxCell id="xXc8IUvG-Q4nKvIilD_s-11" style="edgeStyle=orthogonalEdgeStyle;curved=1;orthogonalLoop=1;jettySize=auto;html=1;exitX=1;exitY=0.5;exitDx=0;exitDy=0;entryX=0;entryY=0.75;entryDx=0;entryDy=0;endArrow=blockThin;endFill=1;strokeColor=default;" parent="yu-SjEQ4_HWFC0-XldRP-1" source="yu-SjEQ4_HWFC0-XldRP-22" target="xXc8IUvG-Q4nKvIilD_s-8" edge="1">
          <mxGeometry relative="1" as="geometry" />
        </mxCell>
        <mxCell id="899tyQHLzr_Wn1gr1Lwd-8" value="" style="edgeStyle=orthogonalEdgeStyle;rounded=0;orthogonalLoop=1;jettySize=auto;html=1;fontColor=#FF3333;exitX=0;exitY=0.5;exitDx=0;exitDy=0;" parent="yu-SjEQ4_HWFC0-XldRP-1" source="yu-SjEQ4_HWFC0-XldRP-22" target="yu-SjEQ4_HWFC0-XldRP-23" edge="1">
          <mxGeometry relative="1" as="geometry">
            <mxPoint x="970" y="425" as="targetPoint" />
            <Array as="points">
              <mxPoint x="990" y="425" />
            </Array>
          </mxGeometry>
        </mxCell>
        <mxCell id="yu-SjEQ4_HWFC0-XldRP-22" value="" style="swimlane;startSize=0;" parent="yu-SjEQ4_HWFC0-XldRP-1" vertex="1">
          <mxGeometry x="990" y="367" width="80" height="130" as="geometry" />
        </mxCell>
        <mxCell id="xXc8IUvG-Q4nKvIilD_s-5" value="NAT &lt;br&gt;instance" style="text;html=1;align=center;verticalAlign=middle;resizable=0;points=[];autosize=1;strokeColor=none;fillColor=none;" parent="yu-SjEQ4_HWFC0-XldRP-22" vertex="1">
          <mxGeometry x="10" y="29" width="60" height="30" as="geometry" />
        </mxCell>
        <mxCell id="azQLa_PY3T6s6BHJI2Fu-2" value="CIDR" style="swimlane;fontStyle=0;childLayout=stackLayout;horizontal=1;startSize=26;horizontalStack=0;resizeParent=1;resizeParentMax=0;resizeLast=0;collapsible=1;marginBottom=0;" parent="yu-SjEQ4_HWFC0-XldRP-1" vertex="1">
          <mxGeometry x="890" y="540" width="100" height="80" as="geometry" />
        </mxCell>
        <mxCell id="xXc8IUvG-Q4nKvIilD_s-2" value="&lt;font color=&quot;#ff3333&quot;&gt;50 IPs.&lt;/font&gt;" style="text;html=1;align=center;verticalAlign=middle;resizable=0;points=[];autosize=1;strokeColor=none;fillColor=none;" parent="azQLa_PY3T6s6BHJI2Fu-2" vertex="1">
          <mxGeometry y="26" width="100" height="20" as="geometry" />
        </mxCell>
        <mxCell id="azQLa_PY3T6s6BHJI2Fu-3" value="SAP Routable &#xa;Subnet" style="text;strokeColor=none;fillColor=none;align=left;verticalAlign=top;spacingLeft=4;spacingRight=4;overflow=hidden;rotatable=0;points=[[0,0.5],[1,0.5]];portConstraint=eastwest;fontColor=#FF6666;" parent="azQLa_PY3T6s6BHJI2Fu-2" vertex="1">
          <mxGeometry y="46" width="100" height="34" as="geometry" />
        </mxCell>
        <mxCell id="xXc8IUvG-Q4nKvIilD_s-6" value="VPC1" style="whiteSpace=wrap;html=1;sketch=1;strokeColor=default;" parent="yu-SjEQ4_HWFC0-XldRP-1" vertex="1">
          <mxGeometry x="1260" y="320" width="120" height="60" as="geometry" />
        </mxCell>
        <mxCell id="xXc8IUvG-Q4nKvIilD_s-7" value="VPC2" style="whiteSpace=wrap;html=1;sketch=1;strokeColor=default;" parent="yu-SjEQ4_HWFC0-XldRP-1" vertex="1">
          <mxGeometry x="1260" y="410" width="120" height="60" as="geometry" />
        </mxCell>
        <mxCell id="xXc8IUvG-Q4nKvIilD_s-8" value="VPC3&lt;br&gt;" style="whiteSpace=wrap;html=1;sketch=1;strokeColor=default;" parent="yu-SjEQ4_HWFC0-XldRP-1" vertex="1">
          <mxGeometry x="1260" y="510" width="120" height="60" as="geometry" />
        </mxCell>
        <mxCell id="xXc8IUvG-Q4nKvIilD_s-13" value="" style="whiteSpace=wrap;html=1;shadow=1;sketch=1;strokeColor=default;" parent="yu-SjEQ4_HWFC0-XldRP-1" vertex="1">
          <mxGeometry x="886" y="359" width="70" height="140" as="geometry" />
        </mxCell>
        <mxCell id="899tyQHLzr_Wn1gr1Lwd-6" style="edgeStyle=orthogonalEdgeStyle;rounded=0;orthogonalLoop=1;jettySize=auto;html=1;entryX=-0.031;entryY=0.446;entryDx=0;entryDy=0;entryPerimeter=0;fontColor=#FF3333;" parent="yu-SjEQ4_HWFC0-XldRP-1" edge="1">
          <mxGeometry relative="1" as="geometry">
            <mxPoint x="960" y="410.02" as="sourcePoint" />
            <mxPoint x="992.52" y="410" as="targetPoint" />
          </mxGeometry>
        </mxCell>
        <mxCell id="yu-SjEQ4_HWFC0-XldRP-23" value="Transit &lt;br&gt;gateway" style="text;html=1;align=center;verticalAlign=middle;resizable=0;points=[];autosize=1;strokeColor=none;" parent="yu-SjEQ4_HWFC0-XldRP-1" vertex="1">
          <mxGeometry x="895" y="410" width="60" height="30" as="geometry" />
        </mxCell>
        <mxCell id="yu-SjEQ4_HWFC0-XldRP-20" value="Account:683972385206" style="text;html=1;align=center;verticalAlign=middle;resizable=0;points=[];autosize=1;strokeColor=none;" parent="yu-SjEQ4_HWFC0-XldRP-1" vertex="1">
          <mxGeometry x="965" y="330" width="140" height="20" as="geometry" />
        </mxCell>
        <mxCell id="899tyQHLzr_Wn1gr1Lwd-11" style="edgeStyle=orthogonalEdgeStyle;curved=1;orthogonalLoop=1;jettySize=auto;html=1;exitX=0;exitY=0.75;exitDx=0;exitDy=0;entryX=1;entryY=0.5;entryDx=0;entryDy=0;endArrow=blockThin;endFill=1;strokeColor=default;" parent="yu-SjEQ4_HWFC0-XldRP-1" source="xXc8IUvG-Q4nKvIilD_s-8" target="yu-SjEQ4_HWFC0-XldRP-22" edge="1">
          <mxGeometry relative="1" as="geometry">
            <mxPoint x="1020" y="540" as="sourcePoint" />
            <mxPoint x="1210" y="663" as="targetPoint" />
          </mxGeometry>
        </mxCell>
        <mxCell id="RkpmPU22vl3A4dNBd53z-1" value="VPC-PCI" style="text;html=1;resizable=0;autosize=1;align=center;verticalAlign=middle;points=[];fillColor=none;strokeColor=none;rounded=0;" vertex="1" parent="yu-SjEQ4_HWFC0-XldRP-1">
          <mxGeometry x="810" y="380" width="60" height="20" as="geometry" />
        </mxCell>
      </root>
    </mxGraphModel>
  </diagram>
</mxfile>
